<svg xmlns="http://www.w3.org/2000/svg" viewBox="0 0 64 64" width="64" height="64">
<rect width="64" height="64" rx="14" fill="#A8492F"></rect>
<path d="M34.90 33.06L34.97 33.28L35.02 33.51L35.06 33.75L35.08 34.00L35.07 34.26L35.05 34.52L35.01 34.79L34.95 35.06L34.86 35.33L34.76 35.60L34.63 35.87L34.48 36.14L34.31 36.40L34.12 36.65L33.90 36.90L33.67 37.14L33.41 37.36L33.13 37.58L32.83 37.78L32.52 37.96L32.18 38.12L31.83 38.27L31.46 38.39L31.08 38.49L30.69 38.57L30.28 38.63L29.86 38.66L29.44 38.66L29.01 38.64L28.57 38.58L28.13 38.50L27.68 38.39L27.24 38.25L26.80 38.08L26.36 37.88L25.93 37.65L25.51 37.39L25.10 37.10L24.70 36.78L24.32 36.43L23.95 36.05L23.60 35.65L23.27 35.21L22.96 34.76L22.68 34.27L22.43 33.77L22.20 33.24L22.00 32.69L21.83 32.13L21.70 31.54L21.60 30.95L21.53 30.33L21.50 29.71L21.51 29.08L21.55 28.45L21.64 27.81L21.76 27.16L21.92 26.52L22.13 25.88L22.37 25.25L22.66 24.63L22.98 24.01L23.35 23.41L23.75 22.83L24.19 22.26L24.68 21.72L25.19 21.20L25.75 20.70L26.33 20.24L26.95 19.80L27.61 19.40L28.29 19.03L29.00 18.70L29.73 18.41L30.49 18.16L31.27 17.95L32.07 17.79L32.88 17.67L33.71 17.60L34.55 17.58L35.40 17.61L36.25 17.68L37.10 17.81L37.95 17.99L38.80 18.22L39.64 18.50L40.48 18.84L41.29 19.22L42.09 19.66L42.88 20.14L43.63 20.68L44.37 21.26L45.07 21.89L45.74 22.56L46.38 23.28L46.97 24.04L47.53 24.85L48.05 25.69L48.52 26.56L48.94 27.47L49.31 28.41L49.63 29.37L49.89 30.36L50.10 31.37L50.25 32.40L50.34 33.45L50.38 34.51L50.35 35.57L50.25 36.64L50.10 37.71L49.88 38.78L49.60 39.84L49.25 40.89L48.85 41.93L48.38 42.95L47.85 43.95L47.25 44.92L46.60 45.86L45.89 46.77L45.12 47.65L44.30 48.48L43.43 49.27L42.50 50.02L41.53 50.71L40.51 51.36L39.45 51.94L38.35 52.47L37.22 52.94L36.05 53.34L34.85 53.68L33.63 53.95L32.38 54.15L31.12 54.28L29.85 54.34L28.56 54.33L27.27 54.24L25.98 54.07L24.69 53.83L23.41 53.52L22.15 53.13L20.90 52.66L19.67 52.12L18.46 51.51L17.29 50.82L16.15 50.07L15.05 49.24L13.99 48.35L12.98 47.40L12.03 46.38L11.12 45.30L10.27 44.17L9.49 42.98L8.77 41.74L8.12 40.46L7.54 39.13L7.03 37.76L6.61 36.36L6.26 34.93L5.99 33.48L5.80 32.00" fill="none" stroke="#FBF9F5" stroke-width="5" stroke-linecap="round" stroke-linejoin="round"></path>
<path d="M29.10 30.94L29.03 30.72L28.98 30.49L28.94 30.25L28.92 30.00L28.93 29.74L28.95 29.48L28.99 29.21L29.05 28.94L29.14 28.67L29.24 28.40L29.37 28.13L29.52 27.86L29.69 27.60L29.88 27.35L30.10 27.10L30.33 26.86L30.59 26.64L30.87 26.42L31.17 26.22L31.48 26.04L31.82 25.88L32.17 25.73L32.54 25.61L32.92 25.51L33.31 25.43L33.72 25.37L34.14 25.34L34.56 25.34L34.99 25.36L35.43 25.42L35.87 25.50L36.32 25.61L36.76 25.75L37.20 25.92L37.64 26.12L38.07 26.35L38.49 26.61L38.90 26.90L39.30 27.22L39.68 27.57L40.05 27.95L40.40 28.35L40.73 28.79L41.04 29.24L41.32 29.73L41.57 30.23L41.80 30.76L42.00 31.31L42.17 31.87L42.30 32.46L42.40 33.05L42.47 33.67L42.50 34.29L42.49 34.92L42.45 35.55L42.36 36.19L42.24 36.84L42.08 37.48L41.87 38.12L41.63 38.75L41.34 39.37L41.02 39.99L40.65 40.59L40.25 41.17L39.81 41.74L39.32 42.28L38.81 42.80L38.25 43.30L37.67 43.76L37.05 44.20L36.39 44.60L35.71 44.97L35.00 45.30L34.27 45.59L33.51 45.84L32.73 46.05L31.93 46.21L31.12 46.33L30.29 46.40L29.45 46.42L28.60 46.39L27.75 46.32L26.90 46.19L26.05 46.01L25.20 45.78L24.36 45.50L23.52 45.16L22.71 44.78L21.91 44.34L21.12 43.86L20.37 43.32L19.63 42.74L18.93 42.11L18.26 41.44L17.62 40.72L17.03 39.96L16.47 39.15L15.95 38.31L15.48 37.44L15.06 36.53L14.69 35.59L14.37 34.63L14.11 33.64L13.90 32.63L13.75 31.60L13.66 30.55L13.62 29.49L13.65 28.43L13.75 27.36L13.90 26.29L14.12 25.22L14.40 24.16L14.75 23.11L15.15 22.07L15.62 21.05L16.15 20.05L16.75 19.08L17.40 18.14L18.11 17.23L18.88 16.35L19.70 15.52L20.57 14.73L21.50 13.98L22.47 13.29L23.49 12.64L24.55 12.06L25.65 11.53L26.78 11.06L27.95 10.66L29.15 10.32L30.37 10.05L31.62 9.85L32.88 9.72L34.15 9.66L35.44 9.67L36.73 9.76L38.02 9.93L39.31 10.17L40.59 10.48L41.85 10.87L43.10 11.34L44.33 11.88L45.54 12.49L46.71 13.18L47.85 13.93L48.95 14.76L50.01 15.65L51.02 16.60L51.97 17.62L52.88 18.70L53.73 19.83L54.51 21.02L55.23 22.26L55.88 23.54L56.46 24.87L56.97 26.24L57.39 27.64L57.74 29.07L58.01 30.52L58.20 32.00" fill="none" stroke="#FBF9F5" stroke-width="5" stroke-linecap="round" stroke-linejoin="round"></path>
</svg>